<?xml version="1.0" encoding="UTF-8"?>
<svg version="1.1" xmlns="http://www.w3.org/2000/svg" width="500" height="500">
<path d="M0 0 C1.11722012 41.27412167 -4.44261894 79.67760776 -33 111 C-33.59425781 111.67675781 -34.18851562 112.35351562 -34.80078125 113.05078125 C-53.05327304 132.75260241 -81.66535785 141.16340834 -107.66015625 142.875 C-120.97149133 143.37320201 -133.8227096 143.06125213 -147 141 C-147.72314453 139.27319336 -147.72314453 139.27319336 -148 137 C-146.61669922 134.91625977 -146.61669922 134.91625977 -144.4296875 132.62890625 C-143.59663086 131.74992676 -142.76357422 130.87094727 -141.90527344 129.96533203 C-140.93808765 128.97567593 -139.96959528 127.98729556 -139 127 C-138.48360962 126.46816101 -137.96721924 125.93632202 -137.43518066 125.3883667 C-133.97246286 121.82279718 -130.47713518 118.29136369 -126.96240234 114.77709961 C-125.12957731 112.94208278 -123.3049299 111.0991875 -121.48046875 109.25585938 C-114.63391811 102.37617131 -107.68904285 95.94339255 -100 90 C-99.35562988 89.49637939 -98.71125977 88.99275879 -98.04736328 88.47387695 C-96.38034375 87.18900981 -94.69788857 85.93122392 -93 84.6875 C-92.38680908 84.23802002 -91.77361816 83.78854004 -91.1418457 83.32543945 C-79.90170291 75.2118234 -67.95509291 68.00709816 -56 61 C-66.52895727 63.64869081 -76.21695508 67.31349697 -86 72 C-86.93779297 72.44835205 -86.93779297 72.44835205 -87.89453125 72.90576172 C-95.54049358 76.62612602 -102.6577274 80.9400556 -109.625 85.8125 C-110.59070923 86.48575317 -110.59070923 86.48575317 -111.57592773 87.17260742 C-123.89313719 96.01569288 -134.61776701 106.37435164 -145.1875 117.1875 C-147.57108554 119.62421574 -149.96125598 122.05419986 -152.35546875 124.48046875 C-153.16470039 125.31459541 -153.16470039 125.31459541 -153.99028015 126.16557312 C-155.28932722 127.48183775 -156.64026538 128.74652578 -158 130 C-158.66 130 -159.32 130 -160 130 C-160.99640222 102.912621 -154.19635524 79.22749742 -136.953125 58.0546875 C-136.30859375 57.37664062 -135.6640625 56.69859375 -135 56 C-134.34 56 -133.68 56 -133 56 C-133 55.34 -133 54.68 -133 54 C-117.65967098 39.86798457 -98.79388228 33.36642078 -78.796875 28.7890625 C-65.38801575 25.69656017 -52.49097613 21.635332 -39.5 17.125 C-38.65232056 16.83439697 -37.80464111 16.54379395 -36.93127441 16.24438477 C-27.37589994 12.95542904 -9.10935034 0 0 0 Z " fill="#4D9A45" transform="translate(361,161)"/>
<path d="M0 0 C3.56896152 2.98627393 7.01831343 5.96343983 10.25 9.3125 C21.77366629 20.93747324 35.8621428 30.23288524 49.40771484 39.32104492 C63.51422868 48.81757583 73.53835433 58.96870963 81.375 74.1875 C81.72135498 74.85281738 82.06770996 75.51813477 82.42456055 76.20361328 C84.5621378 80.5152068 85.56452067 84.20350621 86 89 C85.35562988 89.35191406 84.71125977 89.70382813 84.04736328 90.06640625 C81.06771351 91.70107893 78.09642281 93.35042337 75.125 95 C74.11179687 95.55300781 73.09859375 96.10601562 72.0546875 96.67578125 C65.89919452 100.10865233 60.42287207 103.82540969 55.05419922 108.3984375 C53 110 53 110 50 111 C49.14583333 109.29166667 48.29166667 107.58333333 47.4375 105.875 C46.88449219 104.77542969 46.33148438 103.67585938 45.76171875 102.54296875 C44.61828091 100.24341638 43.49461122 97.9338879 42.39453125 95.61328125 C38.01669853 86.49366298 32.77064191 78.29021796 27 70 C27 73.42506057 27.82660171 75.60853434 29.01171875 78.8203125 C29.65113403 80.57178589 29.65113403 80.57178589 30.3034668 82.35864258 C30.52996918 82.97413971 30.75647156 83.58963684 30.98983765 84.2237854 C34.22031042 93.02721583 37.43920925 101.84504809 40.1875 110.8125 C40.76564453 112.67841797 40.76564453 112.67841797 41.35546875 114.58203125 C42.53619023 120.84343303 40.95827208 125.51673428 38.375 131.1875 C35.18862322 138.63649268 33.20081974 146.3373313 31.25 154.1875 C30.95657715 155.36272217 30.6631543 156.53794434 30.36083984 157.7487793 C28.57071061 165.12285005 27.1335909 172.49723786 26 180 C1.87553073 161.2365239 -12.97454332 129.13777062 -16.97998047 99.34448242 C-19.9650377 74.80817566 -15.66086213 51.73872936 -5.8359375 29.23828125 C-1.57035466 19.46494036 -0.41021226 10.60893768 0 0 Z " fill="#4D9A45" transform="translate(165,104)"/>
<path d="M0 0 C0.66 0.33 1.32 0.66 2 1 C4.06546011 8.06165162 4.35365488 15.44050696 4.3125 22.75 C4.31121094 23.73734131 4.30992187 24.72468262 4.30859375 25.74194336 C4.21937695 32.78170658 3.52486477 39.60304998 2.5 46.5625 C0.13820583 62.76180835 -0.92686187 78.47903049 5 94 C5.4125 95.18335938 5.825 96.36671875 6.25 97.5859375 C10.9349871 110.28331732 17.51211696 121.85677864 26.0871582 132.32714844 C32.80408407 140.59929264 32.80408407 140.59929264 33.41796875 144.98828125 C32.90894731 147.84790576 32.05835494 150.29748481 31 153 C30.47062626 155.13877632 29.97175427 157.28528054 29.5 159.4375 C29.24605469 160.51257813 28.99210937 161.58765625 28.73046875 162.6953125 C27.61029827 167.76303565 26.78549894 172.87115396 26 178 C1.87553073 159.2365239 -12.97454332 127.13777062 -16.97998047 97.34448242 C-19.96400751 72.8166435 -15.67042523 49.73588586 -5.8359375 27.24609375 C-1.85771553 18.13513084 -0.45192247 9.94229438 0 0 Z " fill="#205631" transform="translate(165,106)"/>
<path d="M0 0 C0 3.96 0 7.92 0 12 C-1.32 12.37125 -2.64 12.7425 -4 13.125 C-11.60544167 15.67210547 -17.41803175 20.47416643 -22 27 C-22.95547581 29.67108098 -22.95547581 29.67108098 -23 32 C-22.02005389 33.20849521 -22.02005389 33.20849521 -20.171875 33.0546875 C-13.46410421 32.55701418 -7.88253643 30.63742377 -1.6875 28.05859375 C1 27 1 27 3 27 C3.33 30.96 3.66 34.92 4 39 C8.51884183 26.25041056 11.36042111 13.44168445 8 0 C15.26 0 22.52 0 30 0 C30.15855469 1.75183594 30.31710937 3.50367188 30.48046875 5.30859375 C31.79021535 18.8182984 33.63358092 31.13676541 38 44 C32.06 44 26.12 44 20 44 C17.53440082 38.12049425 16.3938527 33.88792066 17.921875 27.62890625 C19.66918349 23.3682591 22.36994252 19.93289322 25.22265625 16.34765625 C27.16293431 14.0453696 27.16293431 14.0453696 28 11 C22.36096415 12.01502645 19.72425227 13.66743772 16.22265625 18.21484375 C12.75128741 23.28326407 12.35042366 27.99377237 13 34 C13.81962073 37.40166293 14.84230254 40.69918403 16 44 C-13.20812317 46.48579772 -13.20812317 46.48579772 -20 42 C-25.10877278 37.46395959 -27.59518303 32.75161777 -28.3359375 25.88671875 C-28.43383267 17.86910397 -27.87894697 11.35794526 -22.38671875 5.1875 C-16.65423333 -0.10011405 -7.53841395 -3.76920698 0 0 Z " fill="#4E9846" transform="translate(308,327)"/>
<path d="M0 0 C3.96 0 7.92 0 12 0 C14.39559034 4.79118069 13.48575252 10.43399188 11.953125 15.375 C10.70090329 18.61604444 9.37917615 21.81117757 8 25 C6.70215497 28.0094326 6 29.70095004 6 33 C12.16618181 33.40214229 17.17745757 31.96818336 23 30 C23.33 32.97 23.66 35.94 24 39 C28.51884183 26.25041056 31.36042111 13.44168445 28 0 C35.26 0 42.52 0 50 0 C50.15855469 1.75183594 50.31710938 3.50367188 50.48046875 5.30859375 C51.79021535 18.8182984 53.63358092 31.13676541 58 44 C52.06 44 46.12 44 40 44 C37.53440082 38.12049425 36.3938527 33.88792066 37.921875 27.62890625 C39.66918349 23.3682591 42.36994252 19.93289322 45.22265625 16.34765625 C47.16293431 14.0453696 47.16293431 14.0453696 48 11 C42.36096415 12.01502645 39.72425227 13.66743772 36.22265625 18.21484375 C32.61034866 23.48904365 32.59330347 27.73687339 33 34 C33.99 37.3 34.98 40.6 36 44 C24.12 44 12.24 44 0 44 C1 33 1 33 1.5625 28.4375 C2.62674131 18.72200673 1.55377913 9.6278814 0 0 Z " fill="#4E9846" transform="translate(126,327)"/>
<path d="M0 0 C2.71986849 1.0995213 4.16267224 1.89066407 5.9375 4.1875 C6.2675 2.8675 6.5975 1.5475 6.9375 0.1875 C10.2375 0.1875 13.5375 0.1875 16.9375 0.1875 C16.793125 1.13367188 16.64875 2.07984375 16.5 3.0546875 C14.52905219 16.75663251 13.44520441 30.65485458 16.9375 44.1875 C10.3375 44.1875 3.7375 44.1875 -3.0625 44.1875 C-5.65319016 37.7107746 -6.61897459 31.23433394 -4.046875 24.546875 C-2.37244129 21.50061608 -0.56694297 18.78873226 1.66796875 16.125 C2.08691406 15.485625 2.50585938 14.84625 2.9375 14.1875 C2.6075 13.1975 2.2775 12.2075 1.9375 11.1875 C-3.88476704 14.09863352 -7.36639029 16.80588326 -9.8125 23.125 C-10.72354122 30.6410901 -9.06265446 36.93694007 -7.0625 44.1875 C-10.6925 44.1875 -14.3225 44.1875 -18.0625 44.1875 C-17.5675 41.5578125 -17.5675 41.5578125 -17.0625 38.875 C-15.10141688 26.04391333 -15.22608054 12.87541207 -18.0625 0.1875 C-13.09380668 -2.29684666 -5.2915986 -1.36264342 0 0 Z M6.9375 10.1875 C6.20773896 12.38884528 5.50450639 14.59899613 4.8125 16.8125 C4.41804688 18.04226563 4.02359375 19.27203125 3.6171875 20.5390625 C2.85676758 24.62085677 2.98012581 26.54015247 4.9375 30.1875 C7.4125 31.1775 7.4125 31.1775 9.9375 32.1875 C9.2775 24.9275 8.6175 17.6675 7.9375 10.1875 C7.6075 10.1875 7.2775 10.1875 6.9375 10.1875 Z " fill="#4E9846" transform="translate(203.0625,326.8125)"/>
<path d="M0 0 C2.9418033 1.06309909 4.79627368 2.27873405 6.8125 4.6875 C8.30392111 9.16176332 8.55520548 13.00664023 6.625 17.375 C3.64635381 21.17534169 0.21340459 23.73154241 -4.1875 25.6875 C-3.135625 26.161875 -2.08375 26.63625 -1 27.125 C-0.40832031 27.39183594 0.18335938 27.65867187 0.79296875 27.93359375 C3.25636875 28.91425583 3.25636875 28.91425583 7.8125 29.6875 C7.8125 34.6375 7.8125 39.5875 7.8125 44.6875 C0.8125 44.6875 0.8125 44.6875 -1.75 42.875 C-4.77810936 39.41715895 -6.71316679 35.19704659 -8.7578125 31.11328125 C-10.10214465 28.43011509 -10.10214465 28.43011509 -13.1875 26.6875 C-12.90311048 28.58443861 -12.60966208 30.48002027 -12.3125 32.375 C-12.06886719 33.95861328 -12.06886719 33.95861328 -11.8203125 35.57421875 C-11.20537022 39.07542228 -11.20537022 39.07542228 -9.1875 43.6875 C-13.1475 43.6875 -17.1075 43.6875 -21.1875 43.6875 C-20.9709375 42.18123047 -20.9709375 42.18123047 -20.75 40.64453125 C-18.81039073 26.61687664 -19.02123227 13.67153183 -21.1875 -0.3125 C-15.37881186 -3.21684407 -6.03437974 -1.90192497 0 0 Z M-6.375 13.875 C-7.06980469 14.46667969 -7.76460938 15.05835938 -8.48046875 15.66796875 C-10.46243061 18.01276116 -10.83873853 19.67357623 -11.1875 22.6875 C-7.8127665 22.6875 -5.7723218 22.20811981 -3.23046875 19.9453125 C0.70420724 15.92190411 0.70420724 15.92190411 1.8125 10.6875 C-2.64205884 10.6875 -3.19208653 11.07427501 -6.375 13.875 Z " fill="#4E9846" transform="translate(368.1875,327.3125)"/>
<path d="M0 0 C0 4.95 0 9.9 0 15 C-1.32 14.34 -2.64 13.68 -4 13 C-8.75080697 10.99410372 -11.96984394 10.7890365 -17 12 C-19.38028291 13.42675173 -19.38028291 13.42675173 -21 15 C-20.67 15.99 -20.34 16.98 -20 18 C-18.57107422 17.94779297 -18.57107422 17.94779297 -17.11328125 17.89453125 C-15.85902344 17.86746094 -14.60476563 17.84039062 -13.3125 17.8125 C-11.45044922 17.76029297 -11.45044922 17.76029297 -9.55078125 17.70703125 C-5.7542292 18.02027812 -3.98532629 18.69242347 -1 21 C2.12100472 25.68150708 1.57988069 30.52012752 1 36 C-1.33079811 41.10982662 -3.87287491 42.92657398 -9 45 C-11.78609936 45.35948555 -14.50826674 45.33165192 -17.3125 45.25 C-18.04017578 45.24484375 -18.76785156 45.2396875 -19.51757812 45.234375 C-24.84506563 45.15493437 -24.84506563 45.15493437 -26 44 C-26.07271741 41.64686445 -26.08370868 39.29166332 -26.0625 36.9375 C-26.05347656 35.64714844 -26.04445312 34.35679687 -26.03515625 33.02734375 C-26.02355469 32.02832031 -26.01195312 31.02929688 -26 30 C-25.40832031 30.13277344 -24.81664062 30.26554687 -24.20703125 30.40234375 C-23.41683594 30.57894531 -22.62664062 30.75554687 -21.8125 30.9375 C-21.03519531 31.11152344 -20.25789063 31.28554688 -19.45703125 31.46484375 C-18.64621094 31.64144531 -17.83539063 31.81804687 -17 32 C-15.7934375 32.2784375 -15.7934375 32.2784375 -14.5625 32.5625 C-11.72324576 33.04725072 -9.06589268 33.09717943 -6.1875 33.0625 C-5.21167969 33.05347656 -4.23585938 33.04445313 -3.23046875 33.03515625 C-2.49441406 33.02355469 -1.75835937 33.01195312 -1 33 C-1 32.34 -1 31.68 -1 31 C-1.70125 30.82984375 -2.4025 30.6596875 -3.125 30.484375 C-19.28411931 26.35677387 -19.28411931 26.35677387 -24 19 C-25.44829953 14.65510142 -25.51497663 10.54049813 -25 6 C-23.19617663 2.66986455 -21.823278 1.43222095 -18.5 -0.3125 C-12.49755011 -1.49155266 -5.8538375 -1.95127917 0 0 Z " fill="#4F9847" transform="translate(277,327)"/>
<path d="M0 0 C8.91 0 17.82 0 27 0 C27 4.95 27 9.9 27 15 C21 13 21 13 18.4375 11.875 C15.64730339 10.71844604 15.64730339 10.71844604 11 11 C10.34 14.96 9.68 18.92 9 23 C10.588125 22.34 12.17625 21.68 13.8125 21 C16.83635572 19.74333269 18.70342144 19 22 19 C22 21.97 22 24.94 22 28 C17.71 27.34 13.42 26.68 9 26 C8.67 28.31 8.34 30.62 8 33 C14.8954599 33.39030905 20.38359752 31.98492074 27 30 C27 34.62 27 39.24 27 44 C18.09 44 9.18 44 0 44 C0.66 40.04 1.32 36.08 2 32 C2.176513 28.25688617 2.28197914 24.61122901 2.25 20.875 C2.25773437 19.96363281 2.26546875 19.05226563 2.2734375 18.11328125 C2.27085937 17.20707031 2.26828125 16.30085938 2.265625 15.3671875 C2.26336914 14.57425293 2.26111328 13.78131836 2.25878906 12.96435547 C1.87729274 8.59442303 0.86027386 4.3013693 0 0 Z " fill="#4F9847" transform="translate(378,327)"/>
<path d="M0 0 C4.53011906 1.53607485 7.51951171 3.84384468 10.5390625 7.50390625 C12.13027704 12.27754987 12.33785335 16.6540748 10.3515625 21.25390625 C7.52779548 24.7592722 4.82616134 27.0748733 0.5390625 28.50390625 C-1.18889102 28.57193592 -2.91929115 28.5888627 -4.6484375 28.56640625 C-5.54949219 28.55738281 -6.45054688 28.54835938 -7.37890625 28.5390625 C-8.06597656 28.52746094 -8.75304687 28.51585937 -9.4609375 28.50390625 C-9.25597656 29.32375 -9.05101563 30.14359375 -8.83984375 30.98828125 C-7.71354167 35.49348958 -6.58723958 39.99869792 -5.4609375 44.50390625 C-9.4209375 44.50390625 -13.3809375 44.50390625 -17.4609375 44.50390625 C-16.9659375 41.87421875 -16.9659375 41.87421875 -16.4609375 39.19140625 C-14.49985438 26.36031958 -14.62451804 13.19181832 -17.4609375 0.50390625 C-12.58132907 -1.93589797 -5.22918039 -1.05413636 0 0 Z M-3.91015625 15.86328125 C-6.35782648 18.45275605 -7.4609375 19.88096607 -7.4609375 23.50390625 C-2.58320145 23.05016336 0.06084138 21.98212737 3.5390625 18.50390625 C5.34885391 15.38727717 5.34885391 15.38727717 6.5390625 12.50390625 C1.62817239 10.42049832 -0.36329075 12.62312917 -3.91015625 15.86328125 Z " fill="#4E9845" transform="translate(112.4609375,326.49609375)"/>
<path d="M0 0 C9.57 0 19.14 0 29 0 C29 4.95 29 9.9 29 15 C27.01432292 13.92578125 25.02864583 12.8515625 23.04296875 11.77734375 C20.85302199 10.69736489 20.85302199 10.69736489 18 12 C15.34835888 17.30328224 16.51060589 24.29683784 18.08203125 29.765625 C18.95796847 32.1788699 19.86486619 34.58119994 20.80859375 36.96875 C22 40 22 40 23 44 C18.05 44 13.1 44 8 44 C4.51317677 35.28294192 6.3835489 28.30541144 9.8671875 19.91015625 C10.13789063 19.30042969 10.40859375 18.69070313 10.6875 18.0625 C12.19695965 15.09574427 12.19695965 15.09574427 12 12 C7.51311093 12.5278693 4.26272499 13.29491 0 15 C0 10.05 0 5.1 0 0 Z " fill="#4E9946" transform="translate(221,327)"/>
<path d="M0 0 C0.66 0.66 1.32 1.32 2 2 C-1.94465617 5.99397385 -5.89574554 9.98142597 -9.85302734 13.96289062 C-11.19923329 15.31917443 -12.54364149 16.67724503 -13.88623047 18.03710938 C-15.81271716 19.98776601 -17.74550883 21.93197394 -19.6796875 23.875 C-20.28183075 24.48746582 -20.883974 25.09993164 -21.50436401 25.73095703 C-22.96543501 27.19242185 -24.47828173 28.60179351 -26 30 C-26.66 30 -27.32 30 -28 30 C-28.18451025 13.1070615 -28.18451025 13.1070615 -27 6 C-26.67 6 -26.34 6 -26 6 C-25.67 10.62 -25.34 15.24 -25 20 C-23.02 20 -21.04 20 -19 20 C-17.22590192 18.07977297 -17.22590192 18.07977297 -16 16 C-15.34 16 -14.68 16 -14 16 C-14 15.01 -14 14.02 -14 13 C-13.34 13 -12.68 13 -12 13 C-12 12.34 -12 11.68 -12 11 C-11.01 11 -10.02 11 -9 11 C-9 10.01 -9 9.02 -9 8 C-8.01 8 -7.02 8 -6 8 C-6 7.01 -6 6.02 -6 5 C-5.38125 4.731875 -4.7625 4.46375 -4.125 4.1875 C-1.7004767 3.04443152 -1.7004767 3.04443152 0 0 Z " fill="#54914E" transform="translate(229,261)"/>
<path d="M0 0 C0.66 0.33 1.32 0.66 2 1 C2 1.66 2 2.32 2 3 C0.6078125 3.433125 0.6078125 3.433125 -0.8125 3.875 C-4.09791667 4.8875 -4.09791667 4.8875 -7 7 C-10.32240324 6.6758631 -11.60776303 6.39223697 -14 4 C-14 3.34 -14 2.68 -14 2 C-11 1 -11 1 -8 1 C-5.26094655 -0.36952673 -3.02912668 -0.12621361 0 0 Z " fill="#4A9D42" transform="translate(272,347)"/>
<path d="M0 0 C-3.35218114 4.15670462 -5.81911138 4.4054718 -11 5 C-12.55181567 5.48976687 -14.09363123 6.01212453 -15.625 6.5625 C-18.87783164 7.70794157 -21.51029437 8.33771345 -25 8 C-20.91249628 5.27499752 -16.555832 3.92745982 -11.9375 2.3125 C-11.01388672 1.97927734 -10.09027344 1.64605469 -9.13867188 1.30273438 C-8.25630859 0.99271484 -7.37394531 0.68269531 -6.46484375 0.36328125 C-5.25235962 -0.06537231 -5.25235962 -0.06537231 -4.01538086 -0.50268555 C-2 -1 -2 -1 0 0 Z " fill="#548E4C" transform="translate(326,178)"/>
<path d="M0 0 C1.32 0.33 2.64 0.66 4 1 C3.34 1.66 2.68 2.32 2 3 C2.32110689 6.53217579 2.87816502 9.63449506 4 13 C5.65 13.33 7.3 13.66 9 14 C9 14.33 9 14.66 9 15 C2.84765625 15.09765625 2.84765625 15.09765625 1 15 C0 14 0 14 -0.09765625 10.83984375 C-0.08025391 8.90818359 -0.08025391 8.90818359 -0.0625 6.9375 C-0.05347656 5.64714844 -0.04445312 4.35679687 -0.03515625 3.02734375 C-0.02355469 2.02832031 -0.01195312 1.02929688 0 0 Z " fill="#598C53" transform="translate(251,357)"/>
<path d="M0 0 C-2.45334555 1.36396462 -4.91191234 2.71634169 -7.375 4.0625 C-8.42300781 4.64741211 -8.42300781 4.64741211 -9.4921875 5.24414062 C-11.29610184 6.22415178 -13.14583482 7.11875071 -15 8 C-15.66 7.67 -16.32 7.34 -17 7 C-7.29682437 -2.43227479 -7.29682437 -2.43227479 0 0 Z " fill="#53934D" transform="translate(277,232)"/>
<path d="M0 0 C7.75 -0.125 7.75 -0.125 10 1 C10 3.31 10 5.62 10 8 C9.01 8 8.02 8 7 8 C6.67 7.01 6.34 6.02 6 5 C6.66 4.34 7.32 3.68 8 3 C5.36 2.67 2.72 2.34 0 2 C0 1.34 0 0.68 0 0 Z " fill="#53914D" transform="translate(298,326)"/>
<path d="M0 0 C0.99 0.33 1.98 0.66 3 1 C-1.62 4.3 -6.24 7.6 -11 11 C-11.66 10.67 -12.32 10.34 -13 10 C-13 9.34 -13 8.68 -13 8 C-12.43410156 7.90976563 -11.86820313 7.81953125 -11.28515625 7.7265625 C-7.57589713 6.54720832 -5.04613157 3.89433824 -2.12109375 1.3984375 C-1.42113281 0.93695313 -0.72117188 0.47546875 0 0 Z " fill="#548A4E" transform="translate(227,204)"/>
<path d="M0 0 C0.66 0.33 1.32 0.66 2 1 C2.05398987 3.27057377 2.09278742 5.54151288 2.125 7.8125 C2.14820313 9.07707031 2.17140625 10.34164062 2.1953125 11.64453125 C2 15 2 15 0 18 C-0.66 17.67 -1.32 17.34 -2 17 C-1.76990234 16.21882813 -1.76990234 16.21882813 -1.53515625 15.421875 C-0.86017489 12.36721485 -0.65588882 9.36984029 -0.4375 6.25 C-0.35371094 5.07953125 -0.26992187 3.9090625 -0.18359375 2.703125 C-0.12300781 1.81109375 -0.06242188 0.9190625 0 0 Z " fill="#296234" transform="translate(165,106)"/>
<path d="M0 0 C-4.1373656 2.41346327 -9.45467653 4.5081809 -14.25 3.55078125 C-14.8275 3.36902344 -15.405 3.18726563 -16 3 C-14.27709395 2.29695778 -12.54632534 1.61316509 -10.8125 0.9375 C-9.84957031 0.55464844 -8.88664062 0.17179687 -7.89453125 -0.22265625 C-4.79065325 -1.05622133 -3.05080883 -0.88679818 0 0 Z " fill="#569150" transform="translate(287,297)"/>
<path d="M0 0 C0.33 0 0.66 0 1 0 C1.04898438 0.78246094 1.09796875 1.56492187 1.1484375 2.37109375 C1.22320312 3.38300781 1.29796875 4.39492188 1.375 5.4375 C1.44460937 6.44683594 1.51421875 7.45617187 1.5859375 8.49609375 C1.72257813 9.32238281 1.85921875 10.14867187 2 11 C2.66 11.33 3.32 11.66 4 12 C3.34 13.32 2.68 14.64 2 16 C1.34 16 0.68 16 0 16 C0 10.72 0 5.44 0 0 Z " fill="#5D8D56" transform="translate(201,275)"/>
<path d="M0 0 C0.33 0.99 0.66 1.98 1 3 C0.01 3.495 0.01 3.495 -1 4 C-1.99 5.485 -1.99 5.485 -3 7 C-6.625 7.1875 -6.625 7.1875 -10 7 C-6.76478258 4.51137122 -3.40739705 2.24578442 0 0 Z " fill="#53904D" transform="translate(360,161)"/>
<path d="M0 0 C1.46300982 0.93018526 2.92025579 1.86944027 4.375 2.8125 C5.18710938 3.33457031 5.99921875 3.85664063 6.8359375 4.39453125 C9 6 9 6 11 9 C7.40852194 7.66602243 4.1156084 6.25016162 1 4 C0.359375 1.8984375 0.359375 1.8984375 0 0 Z " fill="#538B4D" transform="translate(215,144)"/>
<path d="M0 0 C0.33 0 0.66 0 1 0 C1 3.96 1 7.92 1 12 C-0.98 11.01 -2.96 10.02 -5 9 C-2 7 -2 7 0 7 C0 4.69 0 2.38 0 0 Z " fill="#589252" transform="translate(249,330)"/>
<path d="M0 0 C0 3.54404336 -0.60989485 4.10267905 -2.875 6.6875 C-3.40867188 7.31011719 -3.94234375 7.93273437 -4.4921875 8.57421875 C-6 10 -6 10 -8 10 C-6.34908222 5.70761377 -3.26245434 3.1206085 0 0 Z " fill="#578F51" transform="translate(223,287)"/>
<path d="M0 0 C0.99 0.33 1.98 0.66 3 1 C-1.455 4.465 -1.455 4.465 -6 8 C-6.66 7.67 -7.32 7.34 -8 7 C-6.74057614 5.80040625 -5.46704714 4.61560557 -4.1875 3.4375 C-3.12595703 2.44556641 -3.12595703 2.44556641 -2.04296875 1.43359375 C-1.36878906 0.96050781 -0.69460938 0.48742187 0 0 Z " fill="#589051" transform="translate(316,279)"/>
<path d="M0 0 C3.09592835 3.5087188 4.74194623 6.49197399 6 11 C5.34 11 4.68 11 4 11 C3.731875 10.21625 3.46375 9.4325 3.1875 8.625 C2.15185568 5.71885077 2.15185568 5.71885077 -1 4 C-0.67 2.68 -0.34 1.36 0 0 Z " fill="#548D4D" transform="translate(242,172)"/>
<path d="M0 0 C1.48280196 0.78483659 2.9611498 1.57809334 4.4375 2.375 C5.67306641 3.03628906 5.67306641 3.03628906 6.93359375 3.7109375 C9 5 9 5 10 7 C6.33118845 6.29445932 3.29549466 4.72264494 0 3 C0 2.01 0 1.02 0 0 Z " fill="#528C4C" transform="translate(204,137)"/>
<path d="M0 0 C0 0.66 0 1.32 0 2 C-1.43554025 2.50559908 -2.8735202 3.0042749 -4.3125 3.5 C-5.51326172 3.91765625 -5.51326172 3.91765625 -6.73828125 4.34375 C-9 5 -9 5 -12 5 C-12 4.34 -12 3.68 -12 3 C-10.37604003 2.49663233 -8.75079459 1.99741024 -7.125 1.5 C-6.22007812 1.2215625 -5.31515625 0.943125 -4.3828125 0.65625 C-2 0 -2 0 0 0 Z " fill="#53904D" transform="translate(272,193)"/>
<path d="M0 0 C-0.33 1.65 -0.66 3.3 -1 5 C-1.66 4.34 -2.32 3.68 -3 3 C-5.65537372 2.43479997 -8.29144713 2.26211802 -11 2 C-11 1.67 -11 1.34 -11 1 C-7.26513121 0.4254048 -3.78706732 0 0 0 Z " fill="#589151" transform="translate(278,360)"/>
<path d="M0 0 C0.66 0.33 1.32 0.66 2 1 C2.125 3.875 2.125 3.875 2 7 C1.34 7.66 0.68 8.32 0 9 C-1.10844919 5.67465243 -0.84454356 3.37817425 0 0 Z " fill="#469E3F" transform="translate(118,330)"/>
<path d="M0 0 C1.231394 2.46278801 1.07159196 4.2795055 1 7 C0.01 7.33 -0.98 7.66 -2 8 C-2.66 7.67 -3.32 7.34 -4 7 C-2.92598892 4.08482708 -2.22189824 2.22189824 0 0 Z " fill="#53924B" transform="translate(221,223)"/>
<path d="M0 0 C0.66 0.33 1.32 0.66 2 1 C1.71758359 2.46015291 1.42373386 3.91809793 1.125 5.375 C0.96257812 6.18710938 0.80015625 6.99921875 0.6328125 7.8359375 C0 10 0 10 -2 12 C-1.85962479 10.18706911 -1.71255111 8.3746557 -1.5625 6.5625 C-1.48128906 5.55316406 -1.40007812 4.54382813 -1.31640625 3.50390625 C-1 1 -1 1 0 0 Z " fill="#52944B" transform="translate(353,222)"/>
<path d="M0 0 C0.33 0 0.66 0 1 0 C1.66 3.3 2.32 6.6 3 10 C2.01 10 1.02 10 0 10 C-1.125 3.375 -1.125 3.375 0 0 Z " fill="#468E3D" transform="translate(217,361)"/>
<path d="M0 0 C2 3 2 3 2 5 C-0.31 5 -2.62 5 -5 5 C-3.35 3.35 -1.7 1.7 0 0 Z " fill="#54934D" transform="translate(365,346)"/>
<path d="M0 0 C1.32 0 2.64 0 4 0 C4.33 0.99 4.66 1.98 5 3 C4.01 3.99 3.02 4.98 2 6 C1.01 4.35 0.02 2.7 -1 1 C-0.67 0.67 -0.34 0.34 0 0 Z " fill="#53954D" transform="translate(338,249)"/>
<path d="M0 0 C1.32 0 2.64 0 4 0 C5.35439668 2.70879335 5.06501451 5.00933268 5 8 C4.34 8 3.68 8 3 8 C1.875 3.25 1.875 3.25 3 1 C2.01 0.67 1.02 0.34 0 0 Z " fill="#54914F" transform="translate(134,327)"/>
<path d="M0 0 C1.98 0 3.96 0 6 0 C3.14693203 2.32472205 0.45925163 3.7508258 -3 5 C-2.67 4.01 -2.34 3.02 -2 2 C-1.34 2 -0.68 2 0 2 C0 1.34 0 0.68 0 0 Z " fill="#538F4D" transform="translate(233,199)"/>
<path d="M0 0 C0.66 0 1.32 0 2 0 C2.66 1.32 3.32 2.64 4 4 C3.01 4.33 2.02 4.66 1 5 C0.67 5.99 0.34 6.98 0 8 C0 5.36 0 2.72 0 0 Z " fill="#56954F" transform="translate(98,343)"/>
<path d="M0 0 C0.66 0 1.32 0 2 0 C1.67 2.31 1.34 4.62 1 7 C0.34 7 -0.32 7 -1 7 C-1.625 4.625 -1.625 4.625 -2 2 C-1.34 1.34 -0.68 0.68 0 0 Z " fill="#52914B" transform="translate(208,334)"/>
</svg>
